<svg id="Layer_1" data-name="Layer 1" xmlns="http://www.w3.org/2000/svg" viewBox="0 0 1227.71 261.91"><defs><style>.cls-1{font-size:232px;font-family:OpenSans-SemiBold, Open Sans;font-weight:600;}.cls-1,.cls-4{fill:#00694b;}.cls-2{fill:#046a4c;}.cls-3{fill:#0f9b74;}</style></defs><text class="cls-1" transform="translate(257.81 198.81)">iSGLabs</text><path class="cls-2" d="M483,611.16l-83.59,43.26-83.6-43.26v-90l83.68-43.48L483,521.13Z" transform="translate(-280.63 -429.04)"/><path class="cls-3" d="M482.48,521.34l32.93-17.22,3.32-1.72-83.09-43.35-36,18.77-36-18.77-83.09,43.47,3.32,1.73,32.93,17.22L284,538.69l-3.32,1.72,83.09,43.48,36-18.77,36,18.77,83.09-43.48-3.32-1.72Zm-82.8,34.32-65.57-34.32L399.68,487l65.57,34.32Z" transform="translate(-280.63 -429.04)"/><path class="cls-2" d="M399.51,565.07l-41.75-21.84L316,521.34l83.51-43.69L483,521.34Z" transform="translate(-280.63 -429.04)"/><path class="cls-4" d="M1480.94,621l-3.83-1.08a22.17,22.17,0,0,0-1.17-3.95l2.65-3a3.44,3.44,0,0,0,.1-4.46l-3.1-3.83a3.42,3.42,0,0,0-4.37-.84l-3.47,2a22.31,22.31,0,0,0-3.75-2l-.24-3.92a3.45,3.45,0,0,0-3.09-3.23l-4.89-.52a3.44,3.44,0,0,0-3.69,2.51l-1.1,3.87a22,22,0,0,0-3.94,1.19l-3-2.64a3.45,3.45,0,0,0-4.46-.1L1435.8,604a3.46,3.46,0,0,0-.84,4.39l2,3.51a21.87,21.87,0,0,0-2,3.63l-3.92.24a3.45,3.45,0,0,0-3.23,3.08l-.52,4.89a3.45,3.45,0,0,0,2.5,3.7l3.88,1.09a21.9,21.9,0,0,0,1.19,3.95l-2.63,2.93a3.45,3.45,0,0,0-.1,4.47l3.09,3.83a3.47,3.47,0,0,0,4.38.84l3.51-2a21.58,21.58,0,0,0,3.51,1.9l.23,4a3.45,3.45,0,0,0,3.08,3.23l4.9.52a3.44,3.44,0,0,0,3.7-2.5l1.08-3.83a22.68,22.68,0,0,0,3.95-1.17l3,2.64a3.47,3.47,0,0,0,1.93.86h0a3.44,3.44,0,0,0,2.54-.76l3.82-3.09a3.45,3.45,0,0,0,.85-4.38l-2-3.47a21.94,21.94,0,0,0,2-3.62l4-.24a3.45,3.45,0,0,0,3.23-3.08l.52-4.89A3.39,3.39,0,0,0,1480.94,621Zm-1.15,8.25a.3.3,0,0,1-.29.27l-5,.29a1.57,1.57,0,0,0-1.38,1,18.45,18.45,0,0,1-2.54,4.65,1.58,1.58,0,0,0-.11,1.71l2.44,4.35a.31.31,0,0,1-.08.39L1469,645a.26.26,0,0,1-.23.07.22.22,0,0,1-.16-.07l-3.73-3.3a1.58,1.58,0,0,0-1.7-.25,18.69,18.69,0,0,1-5.08,1.5,1.56,1.56,0,0,0-1.28,1.13l-1.34,4.79a.3.3,0,0,1-.33.22l-4.89-.52a.3.3,0,0,1-.28-.29l-.29-5a1.57,1.57,0,0,0-1-1.38,19.25,19.25,0,0,1-4.55-2.45,1.6,1.6,0,0,0-.77-.3,1.55,1.55,0,0,0-.93.2l-4.37,2.46a.74.74,0,0,1-.18,0,.37.37,0,0,1-.22-.12L1434.6,638a.33.33,0,0,1,0-.4l3.28-3.7a1.6,1.6,0,0,0,.26-1.71,18.44,18.44,0,0,1-1.53-5.07,1.61,1.61,0,0,0-1.13-1.29l-4.82-1.35a.31.31,0,0,1-.23-.33l.52-4.89a.32.32,0,0,1,.29-.28l4.93-.29a1.58,1.58,0,0,0,1.39-1,18.93,18.93,0,0,1,2.5-4.67,1.55,1.55,0,0,0,.1-1.7l-2.46-4.37a.34.34,0,0,1,.08-.39l3.83-3.09a.26.26,0,0,1,.23-.07.24.24,0,0,1,.17.07l3.7,3.29a1.6,1.6,0,0,0,1.71.25,18.44,18.44,0,0,1,5.07-1.53,1.61,1.61,0,0,0,1.29-1.13l1.36-4.82a.28.28,0,0,1,.32-.22l4.89.52a.3.3,0,0,1,.28.28l.29,4.93a1.57,1.57,0,0,0,1,1.39,18.59,18.59,0,0,1,4.76,2.58,1.6,1.6,0,0,0,1.72.11l4.31-2.45a.3.3,0,0,1,.18,0,.27.27,0,0,1,.21.11l3.09,3.83a.32.32,0,0,1,0,.4l-3.3,3.72a1.58,1.58,0,0,0-.25,1.7,18.9,18.9,0,0,1,1.5,5.08,1.57,1.57,0,0,0,1.13,1.29l4.79,1.34a.3.3,0,0,1,.22.33l-.52,4.89Z" transform="translate(-280.63 -429.04)"/><path class="cls-4" d="M1456.66,612.18a12.06,12.06,0,1,0,10.71,13.28A12.08,12.08,0,0,0,1456.66,612.18ZM1454.43,633a8.91,8.91,0,1,1,9.81-7.92A8.92,8.92,0,0,1,1454.43,633Z" transform="translate(-280.63 -429.04)"/><path class="cls-4" d="M1506.08,577.09l-3.09-.52a17.08,17.08,0,0,0-1.24-3l1.82-2.55a2.71,2.71,0,0,0-.29-3.5l-2.74-2.74a2.7,2.7,0,0,0-1.93-.8,2.67,2.67,0,0,0-1.57.5l-2.56,1.82a18,18,0,0,0-3.11-1.28l-.51-3a2.71,2.71,0,0,0-2.69-2.27h-3.87a2.71,2.71,0,0,0-2.68,2.27l-.54,3.13a16.63,16.63,0,0,0-3,1.26l-2.53-1.82a2.7,2.7,0,0,0-3.5.29l-2.75,2.74a2.73,2.73,0,0,0-.3,3.51l1.84,2.58a17.41,17.41,0,0,0-1.22,3l-3.05.51a2.73,2.73,0,0,0-2.28,2.69v3.87a2.72,2.72,0,0,0,2.28,2.69l3.12.53a17.86,17.86,0,0,0,1.26,3l-1.81,2.52a2.72,2.72,0,0,0,.3,3.51l2.74,2.74a2.69,2.69,0,0,0,3.49.29l2.59-1.84a17,17,0,0,0,2.9,1.2l.52,3.09a2.72,2.72,0,0,0,2.68,2.27h3.89a2.72,2.72,0,0,0,2.68-2.27l.53-3.09a17.88,17.88,0,0,0,3-1.24L1497,599a2.73,2.73,0,0,0,1.59.5h0a2.69,2.69,0,0,0,1.92-.8l2.74-2.74a2.71,2.71,0,0,0,.29-3.5l-1.82-2.56a16.64,16.64,0,0,0,1.24-3l3.09-.51a2.73,2.73,0,0,0,2.28-2.69v-3.87A2.68,2.68,0,0,0,1506.08,577.09Zm-.21,6.56a.24.24,0,0,1-.2.24l-3.86.64a1.26,1.26,0,0,0-1,.91,14.65,14.65,0,0,1-1.6,3.86,1.23,1.23,0,0,0,.06,1.35l2.27,3.2a.27.27,0,0,1,0,.32l-2.74,2.74a.24.24,0,0,1-.17.07.2.2,0,0,1-.14-.05l-3.19-2.27a1.26,1.26,0,0,0-1.36,0,14.93,14.93,0,0,1-3.85,1.6,1.21,1.21,0,0,0-.91,1l-.65,3.86a.25.25,0,0,1-.24.21h-3.88a.25.25,0,0,1-.24-.21l-.64-3.86a1.22,1.22,0,0,0-.91-1,15.29,15.29,0,0,1-3.77-1.55,1.28,1.28,0,0,0-.63-.16,1.16,1.16,0,0,0-.71.23l-3.22,2.29a.43.43,0,0,1-.14,0,.27.27,0,0,1-.18-.07l-2.74-2.74a.26.26,0,0,1,0-.31l2.27-3.18a1.26,1.26,0,0,0,0-1.36,14.92,14.92,0,0,1-1.62-3.84,1.26,1.26,0,0,0-1-.92L1467,584a.24.24,0,0,1-.2-.24v-3.87a.24.24,0,0,1,.2-.24l3.84-.64a1.26,1.26,0,0,0,1-.92,14.77,14.77,0,0,1,1.57-3.87,1.23,1.23,0,0,0-.06-1.34l-2.29-3.22a.24.24,0,0,1,0-.31l2.74-2.74a.24.24,0,0,1,.18-.08.24.24,0,0,1,.14,0l3.17,2.26a1.25,1.25,0,0,0,1.36.06,14.64,14.64,0,0,1,3.85-1.62,1.26,1.26,0,0,0,.91-1l.66-3.9a.25.25,0,0,1,.24-.2h3.87a.25.25,0,0,1,.24.2l.65,3.84a1.23,1.23,0,0,0,.92,1,15.23,15.23,0,0,1,3.94,1.62,1.25,1.25,0,0,0,1.35-.05l3.18-2.28a.24.24,0,0,1,.13,0,.26.26,0,0,1,.18.07l2.74,2.74a.27.27,0,0,1,0,.32l-2.27,3.19a1.23,1.23,0,0,0-.06,1.35,14.65,14.65,0,0,1,1.6,3.86,1.25,1.25,0,0,0,1,.91l3.86.65a.24.24,0,0,1,.2.24v3.87Z" transform="translate(-280.63 -429.04)"/><path class="cls-4" d="M1486.32,572.21a9.5,9.5,0,1,0,9.51,9.5A9.51,9.51,0,0,0,1486.32,572.21Zm0,16.52a7,7,0,1,1,7-7A7,7,0,0,1,1486.32,588.73Z" transform="translate(-280.63 -429.04)"/></svg>