<svg width="239" height="196" viewBox="0 0 239 196" fill="none" xmlns="http://www.w3.org/2000/svg">
<path d="M202.45 152.11L118.86 195.37L35.2603 152.11V62.1099L118.94 18.6299L202.45 62.0799V152.11Z" fill="#046A4C"/>
<path d="M201.93 62.29L234.86 45.07L238.18 43.35L155.09 0L119.09 18.77L83.09 0L0 43.47L3.32001 45.2L36.25 62.42L3.45001 79.64L0.130005 81.36L83.22 124.84L119.22 106.07L155.22 124.84L238.31 81.36L234.99 79.64L201.93 62.29ZM119.13 96.61L53.56 62.29L119.13 27.95L184.7 62.27L119.13 96.61Z" fill="#0F9B74"/>
<path d="M118.96 106.02L77.2102 84.1801L35.4502 62.2901L118.96 18.6001L202.45 62.2901L118.96 106.02Z" fill="#046A4C"/>
</svg>
